<svg xmlns="http://www.w3.org/2000/svg" viewBox="0 0 1280 557" preserveAspectRatio="xMidYMid" width="1280" height="557" xmlns:xlink="http://www.w3.org/1999/xlink" style="shape-rendering:auto;display:block;background-position-x:0%;background-position-y:0%;background-size:auto;background-origin:padding-box;background-clip:border-box;background:scroll rgb(255, 255, 255) none  repeat;width:1280px;height:557px;;animation:none"><g><g opacity="0.4" transform="matrix(100,0,0,100,1468.433349609375,-323.39208984375)" style="transform:matrix(100, 0, 0, 100, 1468.43, -323.392);opacity:0.4;;animation:none"><path stroke-width="0" fill="#0055ff" d="M10.0352 0 C10.0352 2.0479999999999996 10.069462137447704 3.4487799730494695 9.045462137447705 5.2223999999999995 S6.791220026950531 7.666738132057598 5.017600000000001 8.690738132057598 S2.048 10.4448 6.395595443867138e-16 10.4448 S-3.243979973049467 9.714738132057597 -5.017599999999997 8.690738132057598 S-8.021462137447703 6.996020026950534 -9.045462137447704 5.222400000000004 S-10.0352 2.048000000000001 -10.0352 1.2289575558803518e-15 S-10.069462137447706 -3.4487799730494673 -9.045462137447707 -5.222399999999998 S-6.791220026950533 -7.666738132057596 -5.017600000000004 -8.690738132057596 S-2.0480000000000014 -10.4448 -1.9186786331601414e-15 -10.4448 S3.243979973049462 -9.714738132057601 5.017599999999993 -8.690738132057602 S8.0214621374477 -6.996020026950534 9.045462137447702 -5.222400000000005 S10.0352 -2.0480000000000023 10.0352 -2.4579151117607036e-15" transform="matrix(1,0,0,1,0,0)" style="fill:rgb(0, 85, 255);transform:matrix(1, 0, 0, 1, 0, 0);;animation:none"></path></g>
<g opacity="0.4" transform="matrix(100,0,0,100,1634.1201171875,-443.7705078125)" style="transform:matrix(100, 0, 0, 100, 1634.12, -443.771);opacity:0.4;;animation:none"><path stroke-width="0" fill="#0046ff" d="M12.04224 0 C12.04224 2.4575999999999993 12.083354564937247 4.138535967659363 10.854554564937247 6.26688 S8.149464032340637 9.200085758469118 6.021120000000002 10.428885758469118 S2.4576000000000002 12.533760000000001 7.674714532640565e-16 12.533760000000001 S-3.892775967659361 11.65768575846912 -6.021119999999997 10.42888575846912 S-9.625754564937242 8.39522403234064 -10.854554564937244 6.266880000000005 S-12.04224 2.4576000000000007 -12.04224 1.4747490670564223e-15 S-12.083354564937249 -4.138535967659361 -10.85455456493725 -6.266879999999997 S-8.14946403234064 -9.200085758469113 -6.021120000000005 -10.428885758469114 S-2.4576000000000016 -12.533760000000001 -2.3024143597921693e-15 -12.533760000000001 S3.892775967659355 -11.657685758469121 6.021119999999992 -10.428885758469123 S9.625754564937242 -8.395224032340641 10.854554564937244 -6.266880000000006 S12.04224 -2.4576000000000024 12.04224 -2.9494981341128445e-15" transform="matrix(1,0,0,1,0,0)" style="fill:rgb(0, 70, 255);transform:matrix(1, 0, 0, 1, 0, 0);;animation:none"></path></g>
<g opacity="0.4" transform="matrix(100,0,0,100,2031.76806640625,-732.6787109375)" style="transform:matrix(100, 0, 0, 100, 2031.77, -732.679);opacity:0.4;;animation:none"><path stroke-width="0" fill="#0033ff" d="M16.859136 0 C16.859136 3.440639999999999 16.916696390912143 5.7939503547231075 15.196376390912144 8.773631999999997 S11.40924964527689 12.880120061856765 8.429568000000002 14.600440061856764 S3.4406399999999997 17.547264 1.074460034569679e-15 17.547264 S-5.449886354723106 16.320760061856763 -8.429567999999996 14.600440061856766 S-13.476056390912138 11.753313645276894 -15.196376390912139 8.773632000000005 S-16.859136 3.440640000000001 -16.859136 2.064648693878991e-15 S-16.916696390912143 -5.793950354723103 -15.196376390912146 -8.773631999999994 S-11.409249645276896 -12.88012006185676 -8.429568000000007 -14.60044006185676 S-3.440640000000002 -17.547264 -3.223380103709037e-15 -17.547264 S5.449886354723098 -16.320760061856767 8.429567999999989 -14.600440061856771 S13.476056390912136 -11.753313645276895 15.196376390912137 -8.773632000000006 S16.859136 -3.440640000000003 16.859136 -4.129297387757982e-15" transform="matrix(1,0,0,1,0,0)" style="fill:rgb(0, 51, 255);transform:matrix(1, 0, 0, 1, 0, 0);;animation:none"></path></g>
<g></g></g><!-- [ldio] generated by https://loading.io --></svg>